<?xml version="1.0" encoding="utf-8"?>
<!-- Generator: Adobe Illustrator 23.0.3, SVG Export Plug-In . SVG Version: 6.00 Build 0)  -->
<svg version="1.1" id="Layer_1" xmlns="http://www.w3.org/2000/svg" xmlns:xlink="http://www.w3.org/1999/xlink" x="0px" y="0px"
	 viewBox="0 0 27 32" style="enable-background:new 0 0 27 32;" xml:space="preserve">
<style type="text/css">
	.st0{filter:url(#filter-1);}
	.st1{fill-rule:evenodd;clip-rule:evenodd;fill:#BBAD8F;}
</style>
<filter  filterUnits="objectBoundingBox" height="200%" id="filter-1" width="200%" x="-50%" y="-50%">
	<feOffset  dx="0" dy="2" in="SourceAlpha" result="shadowOffsetOuter1"></feOffset>
	<feGaussianBlur  in="shadowOffsetOuter1" result="shadowBlurOuter1" stdDeviation="2"></feGaussianBlur>
	
		<feColorMatrix  in="shadowBlurOuter1" result="shadowMatrixOuter1" type="matrix" values="0 0 0 0 0   0 0 0 0 0   0 0 0 0 0  0 0 0 0.05 0">
		</feColorMatrix>
	<feMerge>
		<feMergeNode  in="shadowMatrixOuter1"></feMergeNode>
		<feMergeNode  in="SourceGraphic"></feMergeNode>
	</feMerge>
</filter>
<title>ic_home</title>
<desc>Created with Sketch.</desc>
<g id="OPt-2">
	<g id="prog2_pro3_Mobile-Portrait_opt2-Copy-2" transform="translate(-10.000000, -15.000000)">
		<g id="nav">
			<g id="Group-6" class="st0">
				<g id="ic_home_1_" transform="translate(14.000000, 17.000000)">
					<g id="Group_1_" transform="translate(9.600000, 12.000000) scale(-1, 1) translate(-9.600000, -12.000000) ">
						<path id="Shape_1_" class="st1" d="M1.5,6.9l0.9,0.7l1.4,1.1c0.2-1,0.8-1.8,1.5-2.3L2.6,4.2L3.5,3c0.4-0.5,0.3-1.1-0.2-1.5
							L1.2,4.3C0.9,4.7,0.8,5.2,0.9,5.7C0.9,6.2,1.2,6.6,1.5,6.9L1.5,6.9z"/>
						<path class="st1" d="M10.3,16.6c-3.1-1.6-5.8-2.1-6.5-1c-0.6,0.9,0.4,2.6,2.3,4.4l-1.8,2.9H3.1c-0.6,0-1,0.5-1,1.1h1.6h2.1
							l0.7-1.1l1-1.7l0.4-0.7c-0.1-0.2-0.2-0.5-0.2-0.8c0-0.9,0.7-1.6,1.6-1.6c0,0,0.1,0,0.1,0L10.3,16.6L10.3,16.6z"/>
						<path class="st1" d="M19,6.5c-0.2-0.8-0.8-1.4-1.7-1.4c-0.2,0-0.5,0-0.7,0.1c-0.6,0.3-1,0.9-1,1.6V15c0,0.6-0.5,1.1-1,1.1
							c-0.4,0-0.8-0.3-0.9-0.6c0,0,0-0.1,0-0.1l-1-2.4l1.9-6.5c0,0,0,0,0,0c0-0.1,0-0.1,0.1-0.2C15.2,3.7,14,1.1,11.7,0L7.2,1.6
							C6.7,1.8,6.4,2.4,6.6,2.9l1.1-0.4C8.1,2.3,8.6,2.6,8.8,3C9,3.5,8.7,4,8.3,4.1L7.1,4.6c0.2,0.5,0.8,0.8,1.3,0.6l1.2-0.5
							c0.1,0.5-0.2,1-0.7,1.2L6.7,6.8C5.7,7.2,5,8.2,4.9,9.3c0,0,0,0.1,0,0.1c0,0,0,0.1,0,0.1c0,0,0,0,0,0H1.2V8.1
							c0-0.4-0.5-0.7-0.8-0.9L0.2,7v3.5c0,1,0.8,1.8,1.8,1.8h4.1c0.4,0,0.7,0,1.1,0.1c0,0,0,0,0,0c0,0,0,0,0.1,0c0,0,0,0,0,0
							c1.8,0.5,3.2,2.1,3.4,4c0,0,0,0.1,0,0.1c0,0.1,0,0.2,0,0.3c0,1.1-0.4,2.1-1,2.9c0,0.1-0.1,0.1-0.1,0.2
							c-0.1,0.2-0.2,0.4-0.2,0.7c0,0.6,0.5,1.2,1.1,1.2c0.2,0,0.4-0.1,0.6-0.2l2.3-1.4c0.3,0.2,0.5,0.5,0.5,0.9
							c0,0.3-0.1,0.5-0.3,0.7l-1,1.1h-1.2h0h-0.1c-0.6,0-1,0.5-1,1.1h2.1h0h1.3c0-1,0.8-1.8,1.8-1.8v-3.1c-0.8-0.2-1.4-0.9-1.4-1.8
							c0,0,0-0.1,0-0.1c0.1,0,0.2,0,0.3,0c0.4,0,0.8-0.1,1.1-0.3c0.6-0.4,1-1.1,1-1.9V6.8c0-0.4,0.3-0.7,0.7-0.7
							c0.4,0,0.7,0.3,0.7,0.7c-0.5,0.3-0.8,0.9-0.8,1.5c0,1,0.8,1.8,1.8,1.8V6.8C19,6.7,19,6.6,19,6.5L19,6.5z"/>
					</g>
				</g>
			</g>
		</g>
	</g>
</g>
</svg>
