<?xml version="1.0" encoding="utf-8"?>
<!-- Generator: Adobe Illustrator 23.0.3, SVG Export Plug-In . SVG Version: 6.00 Build 0)  -->
<svg version="1.1" id="Layer_1" xmlns="http://www.w3.org/2000/svg" xmlns:xlink="http://www.w3.org/1999/xlink" x="0px" y="0px"
	 viewBox="0 0 27 27" style="enable-background:new 0 0 27 27;" xml:space="preserve">
<style type="text/css">
	.st0{filter:url(#filter-1);}
	.st1{fill-rule:evenodd;clip-rule:evenodd;fill:#BBAD8F;}
</style>
<filter  filterUnits="objectBoundingBox" height="200%" id="filter-1" width="200%" x="-50%" y="-50%">
	<feOffset  dx="0" dy="2" in="SourceAlpha" result="shadowOffsetOuter1"></feOffset>
	<feGaussianBlur  in="shadowOffsetOuter1" result="shadowBlurOuter1" stdDeviation="2"></feGaussianBlur>
	
		<feColorMatrix  in="shadowBlurOuter1" result="shadowMatrixOuter1" type="matrix" values="0 0 0 0 0   0 0 0 0 0   0 0 0 0 0  0 0 0 0.05 0">
		</feColorMatrix>
	<feMerge>
		<feMergeNode  in="shadowMatrixOuter1"></feMergeNode>
		<feMergeNode  in="SourceGraphic"></feMergeNode>
	</feMerge>
</filter>
<title>ic_onCampus</title>
<desc>Created with Sketch.</desc>
<g id="OPt-2">
	<g id="prog2_pro3_Mobile-Portrait_opt2-Copy-2" transform="translate(-93.000000, -18.000000)">
		<g id="nav">
			<g id="Group-6" class="st0">
				<g id="ic_onCampus_1_" transform="translate(96.000000, 20.000000)">
					<path id="Shape_1_" class="st1" d="M20,2v2h-5l-3.5,5H14v2h-1.5l3.7,8H14L13,17H4.4l-1,2H1.1l4.1-8H5c-0.4,0-0.8-0.3-1-0.7
						L0.9,0.8l1-0.3c0.5-0.2,1.1,0.1,1.3,0.6L5.7,9h4.4l3.5-5H10V2H20L20,2z M7.5,11l-2.1,4h6.7l-1.8-4H7.5z"/>
				</g>
			</g>
		</g>
	</g>
</g>
</svg>
